<svg xmlns="http://www.w3.org/2000/svg" width="120" height="119.994" viewBox="0 0 120 119.994">
  <g id="Group_157" data-name="Group 157" transform="translate(-13.019 -1.64)">
    <path id="Path_1651" data-name="Path 1651" d="M137.036,57.621a22,22,0,0,1-22,22h-72a22,22,0,0,1-4.367-43.565c.16-.033.322-.062.482-.092A12,12,0,0,1,51.04,25.622c.172,0,.345,0,.517.013a11.907,11.907,0,0,1,4.08.9,34.01,34.01,0,0,1,62.5,9.307A21.988,21.988,0,0,1,137.036,57.621Z" transform="translate(-6.017 -5.983)" fill="#d9c9eb"/>
    <rect id="Rectangle_418" data-name="Rectangle 418" width="41.998" height="15.999" rx="8" transform="translate(25.024 79.636)" fill="#fff"/>
    <rect id="Rectangle_419" data-name="Rectangle 419" width="41.998" height="15.999" rx="8" transform="translate(25.024 63.637)" fill="#fff"/>
    <rect id="Rectangle_420" data-name="Rectangle 420" width="41.998" height="15.999" rx="8" transform="translate(25.024 47.638)" fill="#fff"/>
    <path id="Path_1652" data-name="Path 1652" d="M357.041,225.64h16a6,6,0,0,1,6,6v8h-22Z" transform="translate(-258.021 -168.003)" fill="#d745c8"/>
    <path id="Path_1653" data-name="Path 1653" d="M333.041,231.64v12a6,6,0,0,0,6,6h16a6,6,0,0,0,6-6v-4a6,6,0,0,0-6-6h-4.292a6,6,0,0,1-5.366-3.317l-.683-1.367a6,6,0,0,0-5.366-3.316h-.292A6,6,0,0,0,333.041,231.64Z" transform="translate(-240.02 -168.003)" fill="#fff"/>
    <path id="Path_1654" data-name="Path 1654" d="M357.041,377.64h16a6,6,0,0,1,6,6v8h-22Z" transform="translate(-258.021 -282.004)" fill="#d745c8"/>
    <path id="Path_1655" data-name="Path 1655" d="M333.041,383.64v12a6,6,0,0,0,6,6h16a6,6,0,0,0,6-6h0v-4a6,6,0,0,0-6-6h-4.292a6,6,0,0,1-5.366-3.317l-.683-1.367a6,6,0,0,0-5.366-3.316h-.292A6,6,0,0,0,333.041,383.64Z" transform="translate(-240.02 -282.004)" fill="#fff"/>
    <path id="Path_1656" data-name="Path 1656" d="M127.081,35.835a24,24,0,0,0-13.344-7.725,36,36,0,0,0-64.986-9.965,14,14,0,0,0-17.22,9.76q-.054.2-.1.394A24,24,0,0,0,18.511,66.91l3.084-2.547A20,20,0,0,1,37.023,31.639c.607,0,1.22.027,1.82.081l.359-3.984c-.719-.065-1.453-.1-2.179-.1q-.592,0-1.178.029A9.995,9.995,0,0,1,46.7,21.781c-.5,1.025-.963,2.074-1.37,3.152l3.743,1.412A32,32,0,0,1,111.02,37.638h4a36.16,36.16,0,0,0-.376-5.192,20.1,20.1,0,0,1,14.375,19.192,19.87,19.87,0,0,1-3.635,11.5l3.27,2.3a24,24,0,0,0-1.573-29.605Z" transform="translate(0 0)" fill="#310e59"/>
    <circle id="Ellipse_4" data-name="Ellipse 4" cx="2" cy="2" r="2" transform="translate(29.024 85.636)" fill="#310e59"/>
    <circle id="Ellipse_5" data-name="Ellipse 5" cx="2" cy="2" r="2" transform="translate(35.023 85.636)" fill="#310e59"/>
    <circle id="Ellipse_6" data-name="Ellipse 6" cx="2" cy="2" r="2" transform="translate(41.023 85.636)" fill="#310e59"/>
    <rect id="Rectangle_421" data-name="Rectangle 421" width="11.999" height="4" transform="translate(49.023 85.636)" fill="#310e59"/>
    <circle id="Ellipse_7" data-name="Ellipse 7" cx="2" cy="2" r="2" transform="translate(29.024 69.637)" fill="#310e59"/>
    <circle id="Ellipse_8" data-name="Ellipse 8" cx="2" cy="2" r="2" transform="translate(35.023 69.637)" fill="#310e59"/>
    <circle id="Ellipse_9" data-name="Ellipse 9" cx="2" cy="2" r="2" transform="translate(41.023 69.637)" fill="#310e59"/>
    <rect id="Rectangle_422" data-name="Rectangle 422" width="11.999" height="4" transform="translate(49.023 69.637)" fill="#310e59"/>
    <path id="Path_1657" data-name="Path 1657" d="M91.039,177.64h-30a8.009,8.009,0,0,0-8,8v4a7.981,7.981,0,0,0,2.717,6,7.98,7.98,0,0,0-2.717,6v4a7.981,7.981,0,0,0,2.717,6,7.98,7.98,0,0,0-2.717,6v4a8.009,8.009,0,0,0,8,8h30a8.009,8.009,0,0,0,8-8v-4a7.981,7.981,0,0,0-2.717-6,7.981,7.981,0,0,0,2.717-6v-4a7.981,7.981,0,0,0-2.717-6,7.981,7.981,0,0,0,2.717-6v-4A8.009,8.009,0,0,0,91.039,177.64Zm4,40v4a4,4,0,0,1-4,4h-30a4,4,0,0,1-4-4v-4a4,4,0,0,1,4-4h30A4,4,0,0,1,95.039,217.638Zm0-16v4a4,4,0,0,1-4,4h-30a4,4,0,0,1-4-4v-4a4,4,0,0,1,4-4h30A4,4,0,0,1,95.039,201.639Zm-34-8a4,4,0,0,1-4-4v-4a4,4,0,0,1,4-4h30a4,4,0,0,1,4,4v4a4,4,0,0,1-4,4Z" transform="translate(-30.017 -132.002)" fill="#310e59"/>
    <circle id="Ellipse_10" data-name="Ellipse 10" cx="2" cy="2" r="2" transform="translate(29.024 53.637)" fill="#310e59"/>
    <circle id="Ellipse_11" data-name="Ellipse 11" cx="2" cy="2" r="2" transform="translate(35.023 53.637)" fill="#310e59"/>
    <circle id="Ellipse_12" data-name="Ellipse 12" cx="2" cy="2" r="2" transform="translate(41.023 53.637)" fill="#310e59"/>
    <rect id="Rectangle_423" data-name="Rectangle 423" width="11.999" height="4" transform="translate(49.023 53.637)" fill="#310e59"/>
    <path id="Path_1658" data-name="Path 1658" d="M349.04,217.64h-16a8.009,8.009,0,0,0-8,8v12a8.009,8.009,0,0,0,8,8h16a8.009,8.009,0,0,0,8-8v-12A8.009,8.009,0,0,0,349.04,217.64Zm4,8v1.076a7.946,7.946,0,0,0-4-1.076h-4.292a3.978,3.978,0,0,1-3.578-2.211l-.683-1.367c-.072-.144-.15-.284-.23-.422h8.782A4,4,0,0,1,353.04,225.64Zm0,12a4,4,0,0,1-4,4h-16a4,4,0,0,1-4-4v-12a4,4,0,0,1,4-4h.292a3.978,3.978,0,0,1,3.577,2.211l.683,1.367a7.956,7.956,0,0,0,7.155,4.422h4.292a4,4,0,0,1,4,4Z" transform="translate(-234.02 -162.003)" fill="#310e59"/>
    <path id="Path_1659" data-name="Path 1659" d="M349.04,369.64h-16a8.009,8.009,0,0,0-8,8v12a8.009,8.009,0,0,0,8,8h16a8.009,8.009,0,0,0,8-8v-12A8.009,8.009,0,0,0,349.04,369.64Zm4,8v1.076a7.946,7.946,0,0,0-4-1.076h-4.292a3.978,3.978,0,0,1-3.578-2.211l-.683-1.367c-.072-.144-.15-.284-.23-.422h8.782A4,4,0,0,1,353.04,377.64Zm0,12a4,4,0,0,1-4,4h-16a4,4,0,0,1-4-4v-12a4,4,0,0,1,4-4h.292a3.978,3.978,0,0,1,3.577,2.211l.683,1.367a7.956,7.956,0,0,0,7.155,4.422h4.292a4,4,0,0,1,4,4Z" transform="translate(-234.02 -276.004)" fill="#310e59"/>
    <path id="Path_1660" data-name="Path 1660" d="M245.041,265.64v4h6v38a2,2,0,0,0,2,2h8v-4h-6v-36h6v-4Z" transform="translate(-174.019 -198.003)" fill="#310e59"/>
  </g>
</svg>
