<svg xmlns="http://www.w3.org/2000/svg" width="120" height="120.049" viewBox="0 0 120 120.049">
  <g id="Group_156" data-name="Group 156" transform="translate(564.03 77.595)">
    <g id="Group_154" data-name="Group 154" transform="translate(-499.191 -75.833)">
      <g id="Group_153" data-name="Group 153" transform="translate(9.551 0)">
        <g id="Group_152" data-name="Group 152">
          <path id="Path_1643" data-name="Path 1643" d="M-210.478,101.693h-20.261a7.563,7.563,0,0,0-7.564,7.563v4.435l-7.74,4.707a1.5,1.5,0,0,0,0,2.563l3.178,1.932,4.563,2.775v5.269a7.563,7.563,0,0,0,7.564,7.563h20.261a7.563,7.563,0,0,0,7.563-7.563V109.256a7.563,7.563,0,0,0-7.563-7.563Z" transform="translate(246.764 -61.417)" fill="#d9c9eb"/>
          <path id="Path_1644" data-name="Path 1644" d="M-198.126-70.081H-226a1.2,1.2,0,0,0-.883,2.021l6.171,6.665v15.114a7.563,7.563,0,0,0,7.563,7.563h15.027a7.563,7.563,0,0,0,7.563-7.563V-62.518a7.564,7.564,0,0,0-7.564-7.563Z" transform="translate(231.794 70.081)" fill="#d9c9eb"/>
          <path id="Path_1645" data-name="Path 1645" d="M-198.126,324.494H-226a1.2,1.2,0,0,1-.883-2.021l6.171-6.665V300.694a7.563,7.563,0,0,1,7.563-7.563h15.027a7.563,7.563,0,0,1,7.563,7.563v16.236a7.564,7.564,0,0,1-7.564,7.563Z" transform="translate(231.794 -207.969)" fill="#d9c9eb"/>
        </g>
      </g>
      <path id="Path_1646" data-name="Path 1646" d="M-277.207,81.228a5.145,5.145,0,0,1-5.145,5.145,5.145,5.145,0,0,1-5.145-5.145V9.366a5.145,5.145,0,0,1,5.145-5.145,5.145,5.145,0,0,1,5.145,5.145Z" transform="translate(287.497 13.201)" fill="#d745c8"/>
    </g>
    <g id="Group_155" data-name="Group 155" transform="translate(-564.03 -77.595)">
      <path id="Path_1647" data-name="Path 1647" d="M-488.9,47.089a1.762,1.762,0,0,0-1.762,1.762V75.476a3.387,3.387,0,0,1-3.383,3.383,3.387,3.387,0,0,1-3.383-3.383V3.614A3.387,3.387,0,0,1-494.046.23a3.387,3.387,0,0,1,3.383,3.383V29.77a1.762,1.762,0,0,0,1.762,1.762,1.762,1.762,0,0,0,1.762-1.762V3.614a6.915,6.915,0,0,0-6.907-6.907A6.916,6.916,0,0,0-500.9,2.784l-19.5,17.589-35.821,4.936a9.076,9.076,0,0,0-7.807,8.956v10.09a9.076,9.076,0,0,0,7.807,8.956l6.362.877v8.268a1.762,1.762,0,0,0,1.762,1.762,1.762,1.762,0,0,0,1.762-1.762V54.673L-529.428,57l-5.473,8.889a1.763,1.763,0,0,0-.261.924v22.37a2.352,2.352,0,0,1-2.35,2.35h-6.476a2.352,2.352,0,0,1-2.35-2.35V69.964A1.762,1.762,0,0,0-548.1,68.2a1.762,1.762,0,0,0-1.762,1.762V89.186a5.88,5.88,0,0,0,5.873,5.873h6.475a5.879,5.879,0,0,0,5.873-5.873V67.314l6.025-9.786,5.212.718,19.457,17.55a6.915,6.915,0,0,0,6.9,6.586,6.915,6.915,0,0,0,6.907-6.907V48.85a1.761,1.761,0,0,0-1.762-1.762Zm-60.6,3.593V27.938l5.241-.722V51.4Zm-11.01-6.326V34.265a5.539,5.539,0,0,1,4.764-5.466l2.722-.375V50.2l-2.722-.375A5.539,5.539,0,0,1-560.507,44.355Zm41.122,10.476-6.857-.945-.011,0-14.48-2V26.731l21.348-2.942a1.761,1.761,0,0,0,.94-.437l9.451-8.524c0,2.026.011,4.719.017,7.825a1.762,1.762,0,0,0,1.762,1.758h0a1.761,1.761,0,0,0,1.758-1.765c-.011-5.263-.02-9.348-.024-10.989l4.525-4.081V71.045l-4.5-4.059c0-.055,0-.111,0-.167.008-.615.014-1.511.019-2.636.009-2.1.015-5.147.016-9.064,0-6.243-.006-14.642-.024-24.964A1.761,1.761,0,0,0-507.2,28.4h0a1.762,1.762,0,0,0-1.759,1.765c.034,19.677.028,29.185.01,33.669l-9.492-8.561a1.756,1.756,0,0,0-.94-.438Z" transform="translate(564.03 20.715)" fill="#310e59"/>
      <path id="Path_1648" data-name="Path 1648" d="M-216.23,94.18h-20.261a9.335,9.335,0,0,0-9.325,9.325v3.445l-6.894,4.192a3.238,3.238,0,0,0-1.567,2.786,3.238,3.238,0,0,0,1.567,2.787l6.894,4.192v4.278a9.336,9.336,0,0,0,9.325,9.325h6.018a1.762,1.762,0,0,0,1.762-1.762,1.762,1.762,0,0,0-1.762-1.762h-6.018a5.808,5.808,0,0,1-5.8-5.8v-5.269a1.761,1.761,0,0,0-.847-1.505l-7.372-4.483,7.372-4.483a1.762,1.762,0,0,0,.847-1.505V103.5a5.808,5.808,0,0,1,5.8-5.8h20.261a5.808,5.808,0,0,1,5.8,5.8v21.681a5.808,5.808,0,0,1-5.8,5.8h-6.735a1.762,1.762,0,0,0-1.762,1.762,1.761,1.761,0,0,0,1.762,1.762h6.735a9.335,9.335,0,0,0,9.325-9.325V103.5a9.335,9.335,0,0,0-9.325-9.325Z" transform="translate(326.905 -53.904)" fill="#310e59"/>
      <path id="Path_1649" data-name="Path 1649" d="M-228.221-66.457v14.424a9.336,9.336,0,0,0,9.325,9.325h15.027a9.335,9.335,0,0,0,9.325-9.325V-68.27a9.335,9.335,0,0,0-9.325-9.325h-27.877a2.965,2.965,0,0,0-2.717,1.778,2.966,2.966,0,0,0,.541,3.2Zm24.352-7.614a5.808,5.808,0,0,1,5.8,5.8v16.236a5.808,5.808,0,0,1-5.8,5.8H-218.9a5.808,5.808,0,0,1-5.8-5.8V-67.147a1.762,1.762,0,0,0-.469-1.2l-5.3-5.727Z" transform="translate(311.928 77.595)" fill="#310e59"/>
      <path id="Path_1650" data-name="Path 1650" d="M-203.87,285.618H-218.9a9.336,9.336,0,0,0-9.325,9.325v14.424l-5.7,6.158a2.966,2.966,0,0,0-.541,3.2,2.965,2.965,0,0,0,2.717,1.778h27.878a9.335,9.335,0,0,0,9.325-9.325V294.943a9.335,9.335,0,0,0-9.325-9.325Zm5.8,25.561a5.808,5.808,0,0,1-5.8,5.8h-26.6l5.3-5.727a1.761,1.761,0,0,0,.469-1.2V294.943a5.808,5.808,0,0,1,5.8-5.8h15.027a5.808,5.808,0,0,1,5.8,5.8v16.236Z" transform="translate(311.928 -200.455)" fill="#310e59"/>
    </g>
  </g>
</svg>
