<svg xmlns="http://www.w3.org/2000/svg" width="120" height="75.813" viewBox="0 0 120 75.813">
  <g id="Group_161" data-name="Group 161" transform="translate(-9.217 395.323)">
    <g id="Group_158" data-name="Group 158" transform="translate(16.569 -379.089)">
      <path id="Path_1661" data-name="Path 1661" d="M86.409-277.154l.007-.05a49.562,49.562,0,0,1-42.3-48.854H40.587A52.842,52.842,0,0,0,53.641-291.27a52.99,52.99,0,0,0,19.645,14.1h-7.06a1.763,1.763,0,0,0-1.763,1.763,1.763,1.763,0,0,0,1.763,1.763H86.166a1.763,1.763,0,0,0,1.763-1.763A1.762,1.762,0,0,0,86.409-277.154Z" transform="translate(-40.587 326.059)" fill="#310e59"/>
      <path id="Path_1662" data-name="Path 1662" d="M76.6-117.484H65.128a1.763,1.763,0,0,0-1.763,1.763,1.763,1.763,0,0,0,1.763,1.763H76.6a1.763,1.763,0,0,0,1.763-1.763A1.763,1.763,0,0,0,76.6-117.484Z" transform="translate(-58.026 166.369)" fill="#310e59"/>
      <path id="Path_1663" data-name="Path 1663" d="M311.553-277.174h-7.059a52.993,52.993,0,0,0,19.645-14.1,52.841,52.841,0,0,0,13.054-34.789h-3.527a49.563,49.563,0,0,1-42.3,48.854l.007.05a1.762,1.762,0,0,0-1.521,1.745,1.763,1.763,0,0,0,1.763,1.763h19.94a1.763,1.763,0,0,0,1.763-1.763A1.763,1.763,0,0,0,311.553-277.174Z" transform="translate(-231.429 326.06)" fill="#310e59"/>
      <path id="Path_1664" data-name="Path 1664" d="M418.655-117.484H407.288a1.763,1.763,0,0,0-1.763,1.763,1.763,1.763,0,0,0,1.763,1.763h11.367a1.763,1.763,0,0,0,1.763-1.763A1.763,1.763,0,0,0,418.655-117.484Z" transform="translate(-319.993 166.369)" fill="#310e59"/>
    </g>
    <g id="Group_159" data-name="Group 159" transform="translate(13.859 -333.315)">
      <path id="Path_1665" data-name="Path 1665" d="M471.108-129.211v6.188a1.545,1.545,0,0,1-1.545,1.545h-6.188a1.545,1.545,0,0,1-1.545-1.545v-6.188a1.545,1.545,0,0,1,1.545-1.545h6.188A1.545,1.545,0,0,1,471.108-129.211Z" transform="translate(-360.391 130.756)" fill="#cdbfde"/>
      <path id="Path_1666" data-name="Path 1666" d="M38.3-129.211v6.188a1.545,1.545,0,0,1-1.545,1.545H30.566a1.545,1.545,0,0,1-1.545-1.545v-6.188a1.545,1.545,0,0,1,1.545-1.545h6.188A1.545,1.545,0,0,1,38.3-129.211Z" transform="translate(-29.021 130.756)" fill="#cdbfde"/>
    </g>
    <g id="Group_160" data-name="Group 160" transform="translate(9.217 -395.323)">
      <path id="Path_1667" data-name="Path 1667" d="M244.976-144.244v10.238a3.811,3.811,0,0,1-3.811,3.811H230.928a3.811,3.811,0,0,1-3.811-3.811v-10.238a3.811,3.811,0,0,1,3.811-3.811h10.237A3.811,3.811,0,0,1,244.976-144.244Z" transform="translate(-176.047 206.008)" fill="#cdbfde"/>
      <path id="Path_1668" data-name="Path 1668" d="M462.878-391.512v10.238a3.811,3.811,0,0,1-3.811,3.811H448.83a3.811,3.811,0,0,1-3.811-3.811v-10.238a3.811,3.811,0,0,1,3.811-3.811h10.237A3.811,3.811,0,0,1,462.878-391.512Z" transform="translate(-342.878 395.323)" fill="#d745c8"/>
      <path id="Path_1669" data-name="Path 1669" d="M27.076-391.512v10.238a3.811,3.811,0,0,1-3.811,3.811H13.028a3.811,3.811,0,0,1-3.811-3.811v-10.238a3.811,3.811,0,0,1,3.811-3.811H23.265A3.811,3.811,0,0,1,27.076-391.512Z" transform="translate(-9.217 395.323)" fill="#cdbfde"/>
    </g>
  </g>
</svg>
