<svg xmlns="http://www.w3.org/2000/svg" width="120" height="112.259" viewBox="0 0 120 112.259">
  <g id="Group_163" data-name="Group 163" transform="translate(-594.085 -30.422)">
    <path id="Path_1670" data-name="Path 1670" d="M713.375,38.422H606.924a4.837,4.837,0,0,0-4.839,4.836v6.777H718.214V43.261a4.837,4.837,0,0,0-4.836-4.839Z" transform="translate(-6.065 -6.065)" fill="#d745c8"/>
    <path id="Path_1671" data-name="Path 1671" d="M746.085,224.551v5.806a2.9,2.9,0,0,0,2.9,2.9h40.645a2.9,2.9,0,0,0,2.9-2.9v-5.806a2.9,2.9,0,0,0-2.9-2.9,2.9,2.9,0,0,0,2.9-2.9v-5.806a2.9,2.9,0,0,0-2.9-2.9,2.9,2.9,0,0,0,2.9-2.9v-5.806a2.9,2.9,0,0,0-2.9-2.9H748.988a2.9,2.9,0,0,0-2.9,2.9v5.806a2.9,2.9,0,0,0,2.9,2.9,2.9,2.9,0,0,0-2.9,2.9v5.806a2.9,2.9,0,0,0,2.9,2.9A2.9,2.9,0,0,0,746.085,224.551Z" transform="translate(-115.226 -127.355)" fill="#fff"/>
    <g id="Group_162" data-name="Group 162" transform="translate(594.085 30.422)">
      <path id="Path_1672" data-name="Path 1672" d="M707.311,127.2a6.782,6.782,0,0,0,6.774-6.774V37.2a6.782,6.782,0,0,0-6.774-6.774H600.859a6.782,6.782,0,0,0-6.774,6.774v83.226a6.782,6.782,0,0,0,6.774,6.774h51.29v4.2a5.823,5.823,0,0,0-3.537,3.537H596.02a1.935,1.935,0,0,0,0,3.871h52.592a5.8,5.8,0,0,0,10.945,0H712.15a1.935,1.935,0,0,0,0-3.871H659.558a5.823,5.823,0,0,0-3.537-3.537v-4.2Zm-109.355-90a2.906,2.906,0,0,1,2.9-2.9H707.311a2.906,2.906,0,0,1,2.9,2.9v4.839H597.956Zm2.9,86.129a2.906,2.906,0,0,1-2.9-2.9V45.906H710.214v74.516a2.906,2.906,0,0,1-2.9,2.9h-51.29v-9.677h1.936a1.936,1.936,0,0,0,1.935-1.936v-3.871h14.516A4.844,4.844,0,0,0,679.246,103V97.2a4.816,4.816,0,0,0-.977-2.9,4.816,4.816,0,0,0,.977-2.9V85.583a4.816,4.816,0,0,0-.977-2.9,4.816,4.816,0,0,0,.977-2.9V73.97a4.844,4.844,0,0,0-4.839-4.839H659.891V65.261a1.936,1.936,0,0,0-1.935-1.935h-7.742a1.936,1.936,0,0,0-1.935,1.935v3.871H633.763a4.844,4.844,0,0,0-4.839,4.839v5.806a4.817,4.817,0,0,0,.977,2.9,4.817,4.817,0,0,0-.977,2.9V91.39a4.817,4.817,0,0,0,.977,2.9,4.817,4.817,0,0,0-.977,2.9V103a4.844,4.844,0,0,0,4.839,4.839h14.516v3.871a1.936,1.936,0,0,0,1.935,1.936h1.935v9.677ZM674.408,73a.968.968,0,0,1,.968.968v5.806a.968.968,0,0,1-.968.968H633.763a.968.968,0,0,1-.968-.968V73.97a.968.968,0,0,1,.968-.968ZM652.15,69.132V67.2h3.871v1.935ZM633.763,84.616h40.645a.968.968,0,0,1,.968.968V91.39a.968.968,0,0,1-.968.968H633.763a.968.968,0,0,1-.968-.968V85.583A.968.968,0,0,1,633.763,84.616Zm0,11.613h40.645a.968.968,0,0,1,.968.968V103a.968.968,0,0,1-.968.968H633.763a.968.968,0,0,1-.968-.968V97.2A.968.968,0,0,1,633.763,96.228Zm20.323,42.581a1.935,1.935,0,1,1,1.935-1.935A1.936,1.936,0,0,1,654.085,138.809Zm-1.935-29.032v-1.935h3.871v1.935Z" transform="translate(-594.085 -30.422)" fill="#310e59"/>
      <path id="Path_1673" data-name="Path 1673" d="M620.021,58.293h1.936a1.935,1.935,0,0,0,0-3.871h-1.936a1.935,1.935,0,1,0,0,3.871Z" transform="translate(-612.279 -48.616)" fill="#310e59"/>
      <path id="Path_1674" data-name="Path 1674" d="M652.021,58.293h1.936a1.935,1.935,0,0,0,0-3.871h-1.936a1.935,1.935,0,0,0,0,3.871Z" transform="translate(-636.537 -48.616)" fill="#310e59"/>
      <path id="Path_1675" data-name="Path 1675" d="M684.02,58.293h1.936a1.935,1.935,0,1,0,0-3.871H684.02a1.935,1.935,0,0,0,0,3.871Z" transform="translate(-660.795 -48.616)" fill="#310e59"/>
      <circle id="Ellipse_13" data-name="Ellipse 13" cx="1.935" cy="1.935" r="1.935" transform="translate(40.645 44.516)" fill="#310e59"/>
      <circle id="Ellipse_14" data-name="Ellipse 14" cx="1.935" cy="1.935" r="1.935" transform="translate(46.452 44.516)" fill="#310e59"/>
      <circle id="Ellipse_15" data-name="Ellipse 15" cx="1.935" cy="1.935" r="1.935" transform="translate(52.258 44.516)" fill="#310e59"/>
      <path id="Path_1676" data-name="Path 1676" d="M871.633,214.422H860.021a1.935,1.935,0,0,0,0,3.871h11.613a1.935,1.935,0,1,0,0-3.871Z" transform="translate(-794.214 -169.906)" fill="#310e59"/>
      <circle id="Ellipse_16" data-name="Ellipse 16" cx="1.935" cy="1.935" r="1.935" transform="translate(40.645 56.129)" fill="#310e59"/>
      <circle id="Ellipse_17" data-name="Ellipse 17" cx="1.935" cy="1.935" r="1.935" transform="translate(46.452 56.129)" fill="#310e59"/>
      <circle id="Ellipse_18" data-name="Ellipse 18" cx="1.935" cy="1.935" r="1.935" transform="translate(52.258 56.129)" fill="#310e59"/>
      <path id="Path_1677" data-name="Path 1677" d="M871.633,262.422H860.021a1.935,1.935,0,0,0,0,3.871h11.613a1.935,1.935,0,0,0,0-3.871Z" transform="translate(-794.214 -206.293)" fill="#310e59"/>
      <circle id="Ellipse_19" data-name="Ellipse 19" cx="1.935" cy="1.935" r="1.935" transform="translate(40.645 67.742)" fill="#310e59"/>
      <circle id="Ellipse_20" data-name="Ellipse 20" cx="1.935" cy="1.935" r="1.935" transform="translate(46.452 67.742)" fill="#310e59"/>
      <circle id="Ellipse_21" data-name="Ellipse 21" cx="1.935" cy="1.935" r="1.935" transform="translate(52.258 67.742)" fill="#310e59"/>
      <path id="Path_1678" data-name="Path 1678" d="M860.021,314.293h11.613a1.935,1.935,0,1,0,0-3.871H860.021a1.935,1.935,0,0,0,0,3.871Z" transform="translate(-794.214 -242.68)" fill="#310e59"/>
    </g>
  </g>
</svg>
