<svg xmlns="http://www.w3.org/2000/svg" viewBox="0 0 190.084716796875 24" fill="none"> <path d="M22.955814370899976 15.266975000449143C22.771424702122776 16.96330000532554 22.17219574601804 18.466043334094735 21.1580775460242 19.775180008475946C20.162393317251922 21.065857733354807 18.8532816211515 22.07075894773787 17.23069250116135 22.789858673344334C15.608103381171208 23.508958398950806 13.755039664349951 23.86849577261365 11.67150135069758 23.86849577261365C9.348271454603319 23.86849577261365 7.310818069004856 23.416763564562206 5.559191150463771 22.51327417017853C3.807539253641898 21.609784775794854 2.4430881764556043 20.35597499335912 1.4658529058733625 18.751844822871323C0.48861763529112084 17.12925570288118 0 15.248541029227578 0 13.109675823629733C0 10.970835596312675 0.48861763529112084 9.099337908269856 1.4658529058733625 7.495182759501273C2.4430881764556043 5.872618617791916 3.807539253641898 4.609591849745401 5.559191150463771 3.706102455361726C7.310818069004856 2.802613060978051 9.348271454603319 2.3508733594423714 11.67150135069758 2.3508733594423714C13.755039664349951 2.3508733594423714 15.608103381171208 2.7104182265894488 17.23069250116135 3.4295179521959183C18.8532816211515 4.148617677802387 20.162393317251922 5.153518892185447 21.1580775460242 6.444196617064307C22.17219574601804 7.734899320223955 22.771424702122776 9.237617670712364 22.955814370899976 10.952401625091113H19.2773628723706C19.07453923237183 9.846088590708668 18.631999031650377 8.896514268271087 17.949792226767823 8.103653679497578C17.285994414826042 7.310818069004856 16.41939794116628 6.702347149008552 15.349977827507752 6.278265897789453C14.280557713849223 5.8357256970680025 13.045181902635052 5.614468085847672 11.643850393865238 5.614468085847672C10.021261273875092 5.614468085847672 8.610737757775286 5.9187035458458235 7.412229889004241 6.527174465842128C6.232180969735545 7.1356453858384326 5.319474589741088 8.002241859498193 4.6741357273016595 9.1269888651022C4.02879686486223 10.251735870706206 3.7061274336425143 11.57930651630898 3.7061274336425143 13.109675823629733C3.7061274336425143 14.640070109231274 4.02879686486223 15.967640754834049 4.6741357273016595 17.092387760438054C5.319474589741088 18.21713476604206 6.232180969735545 19.083731239701823 7.412229889004241 19.692202159698127C8.610737757775286 20.30067307969443 10.021261273875092 20.60490853969258 11.643850393865238 20.60490853969258C13.045181902635052 20.60490853969258 14.280557713849223 20.39286791408303 15.349977827507752 19.968761684583146C16.41939794116628 19.544680433364046 17.285994414826042 18.936209513367743 17.949792226767823 18.143373902875023C18.631999031650377 17.332079342879947 19.07453923237183 16.373288034831585 19.2773628723706 15.266975000449143H22.955814370899976Z" fill="white"/> <path d="M34.547460157918245 23.86849577261365C32.648111686796774 23.86849577261365 30.97956253015666 23.527392370172368 29.541313122382146 22.845160587009023C28.12154764239077 22.14449483262412 27.006017622397543 21.176486538964973 26.194723062402474 19.9411107277508C25.40191243019054 18.70573491653663 25.005507114084573 17.276777429215258 25.005507114084573 15.654188309225116C25.005507114084573 14.013165218013407 25.40191243019054 12.58418275241125 26.194723062402474 11.36726589069943C27.006017622397543 10.13189007948526 28.12154764239077 9.173073793156107 29.541313122382146 8.49086698827355C30.97956253015666 7.790201233888644 32.648111686796774 7.439880845836584 34.547460157918245 7.439880845836584C36.44655884623183 7.439880845836584 38.10611582178825 7.790201233888644 39.52563151897175 8.49086698827355C40.96388092674626 9.173073793156107 42.079410946739486 10.13189007948526 42.872221578951425 11.36726589069943C43.683516138946494 12.58418275241125 44.089163418944025 14.013165218013407 44.089163418944025 15.654188309225116C44.089163418944025 17.276777429215258 43.683516138946494 18.70573491653663 42.872221578951425 19.9411107277508C42.079410946739486 21.176486538964973 40.96388092674626 22.14449483262412 39.52563151897175 22.845160587009023C38.10611582178825 23.527392370172368 36.44655884623183 23.86849577261365 34.547460157918245 23.86849577261365ZM34.547460157918245 21.047423762133246C35.764401997910845 21.047423762133246 36.80599630677152 20.826166150912915 37.67274265011601 20.383625950191465C38.55772313843576 19.9411107277508 39.23987998675674 19.323422822143716 39.71946297788683 18.530587211650996C40.19879618620904 17.719292651655923 40.43833789896621 16.760501343607558 40.43833789896621 15.654188309225116C40.43833789896621 14.547875274842673 40.19879618620904 13.59830095240509 39.71946297788683 12.80544036363158C39.23987998675674 11.994170781917298 38.55772313843576 11.36726589069943 37.67274265011601 10.92472568997798C36.80599630677152 10.482210467537318 35.764401997910845 10.260952856316987 34.547460157918245 10.260952856316987C33.349002245708775 10.260952856316987 32.30715815404022 10.482210467537318 31.422177665720476 10.92472568997798C30.53694739459285 11.36726589069943 29.854790546271868 11.994170781917298 29.375457337949655 12.80544036363158C28.896124129627445 13.59830095240509 28.656332634062398 14.547875274842673 28.656332634062398 15.654188309225116C28.656332634062398 16.760501343607558 28.896124129627445 17.719292651655923 29.375457337949655 18.530587211650996C29.854790546271868 19.323422822143716 30.53694739459285 19.9411107277508 31.422177665720476 20.383625950191465C32.30715815404022 20.826166150912915 33.349002245708775 21.047423762133246 34.547460157918245 21.047423762133246Z" fill="white"/> <path d="M61.670376134403746 23.481282463837672L61.061905214407446 17.534902982878716L61.863957810510946 15.68183926605746L61.08963110608215 13.552216024351184L62.25112116272535 2.1849276531990443H65.9573984660526L64.54687494995277 15.432930698004785L65.34892754605627 23.481282463837672H61.670376134403746ZM62.721462189963866 15.654188309225116C62.37101691050786 17.295211400436823 61.790271882186275 18.733410851649765 60.97897732219119 19.968761684583146C60.16768276219612 21.204137495797315 59.16280652609385 22.16295378212647 57.96434861388438 22.845160587009023C56.78412484665017 23.527392370172368 55.46602096946606 23.86849577261365 54.00928763390841 23.86849577261365C52.478868370026085 23.86849577261365 51.123546854467804 23.527392370172368 49.94357287004148 22.845160587009023C48.763598885615146 22.14449483262412 47.841650541729116 21.176486538964973 47.1777278383834 19.9411107277508C46.514054917845556 18.70573491653663 46.1820935661727 17.276777429215258 46.1820935661727 15.654188309225116C46.1820935661727 14.013165218013407 46.514054917845556 12.58418275241125 47.1777278383834 11.36726589069943C47.841650541729116 10.13189007948526 48.763598885615146 9.173073793156107 49.94357287004148 8.49086698827355C51.123546854467804 7.790201233888644 52.478868370026085 7.439880845836584 54.00928763390841 7.439880845836584C55.46602096946606 7.439880845836584 56.78412484665017 7.780984248277862 57.96434861388438 8.463216031441206C59.16280652609385 9.145422836323762 60.16768276219612 10.104214144372126 60.97897732219119 11.339589955586296C61.808755809969405 12.556531795578906 62.389500838291006 13.994731246791845 62.721462189963866 15.654188309225116ZM49.832919086150525 15.654188309225116C49.832919086150525 16.70517445166208 50.04498469004086 17.6363148028781 50.46911589782153 18.447609362873173C50.91173103338535 19.240444973365896 51.51095998949009 19.867349864583762 52.26680276613574 20.328324036526777C53.02289532558928 20.770839258967438 53.889391886125885 20.992096870187765 54.86654223055345 20.992096870187765C55.86242628557203 20.992096870187765 56.78412484665017 20.770839258967438 57.63238726221152 20.328324036526777C58.480649677772874 19.867349864583762 59.22725049052696 19.240444973365896 59.872689266089544 18.447609362873173C60.536362186627386 17.6363148028781 61.061905214407446 16.70517445166208 61.44906856662184 15.654188309225116C61.061905214407446 14.603202166788149 60.536362186627386 13.681278801182911 59.872689266089544 12.888418212409402C59.22725049052696 12.077123652414329 58.480649677772874 11.450218761196462 57.63238726221152 11.0077035387558C56.78412484665017 10.546754345093577 55.86242628557203 10.316254769981676 54.86654223055345 10.316254769981676C53.889391886125885 10.316254769981676 53.02289532558928 10.546754345093577 52.26680276613574 11.0077035387558C51.51095998949009 11.450218761196462 50.91173103338535 12.077123652414329 50.46911589782153 12.888418212409402C50.04498469004086 13.681278801182911 49.832919086150525 14.603202166788149 49.832919086150525 15.654188309225116Z" fill="white"/> <path d="M77.3547382068208 23.86849577261365C75.52932544683189 23.86849577261365 73.90673632684174 23.527392370172368 72.48697084685035 22.845160587009023C71.067205366859 22.14449483262412 69.95167534686577 21.176486538964973 69.1403807868707 19.9411107277508C68.32908622687562 18.70573491653663 67.92343894687808 17.267535465323693 67.92343894687808 15.62653735239277C67.92343894687808 14.003948232402628 68.30136033520091 12.58418275241125 69.05745289465445 11.36726589069943C69.83177959908323 10.13189007948526 70.89210761853492 9.173073793156107 72.23793738739374 8.49086698827355C73.60250086684358 7.790201233888644 75.16039623959276 7.439880845836584 76.91212307125699 7.439880845836584C78.66384990292121 7.439880845836584 80.17578523902041 7.836311140223339 81.44792907955456 8.62914675071606C82.73855684787185 9.403573368268006 83.73444090289041 10.50064443875888 84.43508167899454 11.920409918750257C85.13572245509866 13.340175398741634 85.48591795174677 15.008849446785685 85.48591795174677 16.926432062882412H70.7444859790777V14.188337901179832H83.68823108343257L81.89054421511837 15.211673086784453C81.83509243176896 14.17912091556905 81.58630875512023 13.294065492406938 81.14369361955642 12.556531795578906C80.71956241177573 11.818998098750875 80.13881738345414 11.256637085089265 79.40120875178373 10.869423776313292C78.68233383070435 10.463776496315756 77.82482945125143 10.260952856316987 76.82919517904074 10.260952856316987C75.77810912348062 10.260952856316987 74.85616077959459 10.472993481926537 74.06335014738266 10.897074733145635C73.28902344295386 11.321155984364735 72.68055252295757 11.920409918750257 72.23793738739374 12.694811558021415C71.79557203463781 13.4508042043518 71.57426446685591 14.354268620454686 71.57426446685591 15.405254762891651C71.57426446685591 16.56689468921957 71.83229010739622 17.571770925321843 72.34859117128471 18.419958406040827C72.88337616295632 19.268120908479027 73.62997697571042 19.92267675652924 74.58889317516272 20.383625950191465C75.56604351959028 20.826166150912915 76.71854139514978 21.047423762133246 78.04613701903335 21.047423762133246C79.24459493124282 21.047423762133246 80.470778735127 20.86303409335604 81.724438647878 20.494254755801627C82.97834834343689 20.107066425306442 84.08463639953854 19.57235636847718 85.04355259899086 18.890124585313835V21.489938984573904C84.08463639953854 22.227472681401938 82.91390437900378 22.8082926445659 81.5308569717708 23.232373895785C80.16654327512884 23.6564551470041 78.77450368681218 23.86849577261365 77.3547382068208 23.86849577261365Z" fill="white"/> <path fill-rule="evenodd" clip-rule="evenodd" d="M109.87745892406168 7.965398895335856L106.36476329684164 7.246299169729386V23.48130744211846H113.38990476847385V7.246299169729386L109.87745892406168 7.965398895335856ZM107.02868600018736 5.559191150463771C107.74781070407461 6.130769149736161 108.69723515682746 6.416570638512751 109.87745892406168 6.416570638512751C111.07591683627115 6.416570638512751 112.025341289024 6.130769149736161 112.72598206512812 5.559191150463771C113.44510676901538 4.987588172910593 113.80479401236296 4.203969548028653 113.80479401236296 3.2082853192563756C113.80479401236296 2.212608583968334 113.44510676901538 1.4289774699460005 112.72598206512812 0.8573869815332159C112.025341289024 0.2857964931204316 111.07591683627115 0 109.87745892406168 0C108.69723515682746 0 107.74781070407461 0.2857964931204316 107.02868600018736 0.8573869815332159C106.3095612963001 1.4289774699460005 105.94987405295254 2.212608583968334 105.94987405295254 3.2082853192563756C105.94987405295254 4.203969548028653 106.3095612963001 4.987588172910593 107.02868600018736 5.559191150463771ZM91.7402296782605 16.747987224932757L97.6588333109832 2.738094161702581H105.1265899181792L95.72301654991121 23.48130744211846H87.59158702217734L78.18801365390934 2.738094161702581H85.82137626272997L91.7402296782605 16.747987224932757ZM135.75395868922473 18.060421032377988C135.75395868922473 19.38799167798076 135.33931922814347 20.49427973408242 134.50954074036525 21.37933515724453C133.67976225258707 22.245931630904288 132.51802241313598 22.90051245723529 131.02457100481993 23.343027679675952C129.54960352428702 23.767108930895052 127.81636062040592 23.979149556504602 125.82509207598453 23.979149556504602C123.7783717482137 23.979149556504602 121.97144291600793 23.73945797406271 120.40405579655933 23.26004983089813C118.85515260489386 22.76220771651199 117.62921858381755 22.070783926018652 116.72575416771467 21.18572850285654C115.84052389658704 20.300698057975218 115.3704326521564 19.268145886759815 115.31498086880698 18.08807198921033H122.45077612433013C122.57991383600422 18.43841735554318 122.80097162097826 18.733410851649765 123.114449044868 18.973127412372445C123.4279264687577 19.194385023592776 123.83357374875524 19.3695577067592 124.33139088486058 19.498620483590926C124.84769194874907 19.609249289201095 125.47464679652852 19.664551202865784 126.21225542819893 19.664551202865784C127.09723591651867 19.664551202865784 127.77015080094807 19.581598332368745 128.23124986429502 19.415642634813103C128.69209914483412 19.231252966035903 128.92264867650758 18.982344397983226 128.92264867650758 18.66889195237429C128.92264867650758 18.35543950676536 128.7290670004004 18.13418189554503 128.341903648186 18.00509414043251C127.95474029597159 17.87603136360078 127.32778544819215 17.78383652921218 126.46103910484766 17.728534615547492L123.86129964042995 17.56257891799185C121.85154716822541 17.433516141160123 120.24744197601841 17.175365609215877 119.04898406380893 16.788177278720692C117.86876029657472 16.382529998723157 117.02074766382125 15.83860295628311 116.50444659993276 15.156371173119764C115.98814553604427 14.47413938995642 115.72987011269609 13.653652822631356 115.72987011269609 12.694836536302205C115.72987011269609 11.422592782644907 116.12627542880205 10.37160664020794 116.91933584382187 9.541878108991304C117.73063040381693 8.712149577774671 118.85515260489386 8.094461672167585 120.29340201266837 7.688814392170048C121.73165142044289 7.283167112172512 123.40944254097457 7.080343472173744 125.3270251570713 7.080343472173744C127.20788970040962 7.080343472173744 128.87643885704972 7.320035054615637 130.33317219260738 7.799443197780214C131.78990552816506 8.260417369723227 132.9606375486998 8.914973217773438 133.84561803701953 9.763135720211636C134.7308483081472 10.611298222649834 135.24689958922778 11.59776546581133 135.39452122868502 12.722487493134548H128.25897575596974C128.16655611705403 12.390601076304051 127.98221640483843 12.104824565808249 127.70570683651498 11.865108005085569C127.42919726819153 11.625416422643674 127.06951002484396 11.441026753866469 126.62714467208804 11.31196397703474C126.18452953652422 11.182901200203013 125.64974454485258 11.118357322646753 125.02278969707314 11.118357322646753C124.17477706431967 11.118357322646753 123.5570641804318 11.21976914264614 123.16990082821741 11.422592782644907C122.782737476003 11.60698245142211 122.5891557998958 11.855891019474786 122.5891557998958 12.16934346508372C122.5891557998958 12.46436193947109 122.70880176487044 12.67640256508064 122.94859326043549 12.805465341912369C123.18838475600054 12.916094147522534 123.6584760004312 12.989855010689576 124.3591167765353 13.026722953132701L127.84408651208064 13.24800554263382C129.83535505650204 13.358634348243985 131.40249239314278 13.616759901907441 132.5457483048107 14.022407181904978C133.70748814426176 14.40962049068095 134.52802466814842 14.935113561899435 135.00735787647062 15.598886395560427C135.50517501257596 16.262684207502208 135.75395868922473 17.08319575310806 135.75395868922473 18.060421032377988ZM141.31637203791013 7.965398895335856L137.8036764106901 7.246299169729386V23.48130744211846H144.82881788232228V7.246299169729386L141.31637203791013 7.965398895335856ZM138.4675991140358 5.559191150463771C139.18672381792308 6.130769149736161 140.13614827067593 6.416570638512751 141.31637203791013 6.416570638512751C142.5148299501196 6.416570638512751 143.46425440287246 6.130769149736161 144.16489517897656 5.559191150463771C144.88401988286384 4.987588172910593 145.2437071262114 4.203969548028653 145.2437071262114 3.2082853192563756C145.2437071262114 2.212608583968334 144.88401988286384 1.4289774699460005 144.16489517897656 0.8573869815332159C143.46425440287246 0.2857964931204316 142.5148299501196 0 141.31637203791013 0C140.13614827067593 0 139.18672381792308 0.2857964931204316 138.4675991140358 0.8573869815332159C137.74847441014853 1.4289774699460005 137.388787166801 2.212608583968334 137.388787166801 3.2082853192563756C137.388787166801 4.203969548028653 137.74847441014853 4.987588172910593 138.4675991140358 5.559191150463771ZM157.34693308204922 23.979149556504602C155.24501075373686 23.979149556504602 153.40111406596483 23.62882916845254 151.81524301873307 22.928163414067633C150.24810568209233 22.22749765968273 149.02192187820816 21.241055394802018 148.13694138988842 19.968786662863934C147.2701950465439 18.696542909206638 146.83707165767956 17.221475515550573 146.83707165767956 15.543584481895738C146.83707165767956 13.847234498738555 147.2701950465439 12.362950119471707 148.13694138988842 11.09070636581441C149.02192187820816 9.818462612157113 150.24810568209233 8.831995368995617 151.81524301873307 8.13132961461071C153.40111406596483 7.430688838506591 155.24501075373686 7.080343472173744 157.34693308204922 7.080343472173744C159.44885541036157 7.080343472173744 161.28351013424208 7.430688838506591 162.8506474708828 8.13132961461071C164.43651851811453 8.831995368995617 165.6627023219987 9.818462612157113 166.52919888253533 11.09070636581441C167.41417937085507 12.362950119471707 167.85679450641888 13.847234498738555 167.85679450641888 15.543584481895738C167.85679450641888 17.221475515550573 167.41417937085507 18.696542909206638 166.52919888253533 19.968786662863934C165.6627023219987 21.241055394802018 164.43651851811453 22.22749765968273 162.8506474708828 22.928163414067633C161.28351013424208 23.62882916845254 159.44885541036157 23.979149556504602 157.34693308204922 23.979149556504602ZM175.9802309843006 7.578185586559882H168.95508951266837L170.06137756877 13.275656499466164V23.48130744211846H177.08651904040224V15.90312185555858C177.08651904040224 15.239349021897585 177.20616500537687 14.67696302995519 177.44595650094192 14.216013836292964C177.68574799650696 13.736605693128388 178.0267015292635 13.377068319465547 178.46931666482735 13.137376737023652C178.93016594536638 12.879226205079409 179.47419290092958 12.750163428247681 180.10114774870902 12.750163428247681C180.9861282370288 12.750163428247681 181.66828508534977 12.989855010689576 182.14786807647988 13.46926315385415C182.6456852125852 13.948646318737937 182.89446888923396 14.630878101901281 182.89446888923396 15.515908546782606V23.48130744211846H189.91961036086616V14.520249296291118C189.91961036086616 13.026722953132701 189.6246168647596 11.726828242643057 189.03438008973853 10.620515208260615C188.4628770253085 9.49576820265661 187.6330985375303 8.629171728996848 186.54529440921178 8.020700809000544C185.45749028089327 7.393795917782677 184.13913662090127 7.080343472173744 182.59023342923578 7.080343472173744C181.3732915892432 7.080343472173744 180.23927764146683 7.366144960950333 179.18844136871456 7.9377229602227235C178.13735531315447 8.5093259377759 177.24313286094318 9.375922411435662 176.50552422927274 10.537537359482794L176.4718035502089 10.590266510226316L175.9802309843006 7.578185586559882ZM153.23700676118747 12.581684924332448C154.1909273044822 11.694431412460988 155.50178748023777 10.948979600623153 157.13836443746922 10.948979600623153C158.77519117750853 10.948979600623153 160.08580157045623 11.694431412460988 161.03997189655882 12.581684924332448C161.98789765246437 13.460845473228586 162.62209620167235 14.514204552340415 162.9238338335917 15.23740071599612C162.9907756261036 15.397411582724212 162.9907756261036 15.575681572708351 162.9238338335917 15.73571741771723C162.62209620167235 16.45888860309215 161.98789765246437 17.510224441460146 161.03997189655882 18.391408231100115C160.08580157045623 19.278661742971575 158.77519117750853 20.0241385330902 157.13836443746922 20.0241385330902C155.50178748023777 20.0241385330902 154.1909273044822 19.278661742971575 153.23700676118747 18.391408231100115C152.28883122247402 17.512247682203977 151.65488245607395 16.45888860309215 151.35514308661763 15.73571741771723C151.28820129410573 15.575681572708351 151.28820129410573 15.397411582724212 151.35514308661763 15.23740071599612C151.65488245607395 14.514204552340415 152.28883122247402 13.460845473228586 153.23700676118747 12.581684924332448ZM155.07590779280193 13.423902595943096C154.5286336607363 13.970951923481644 154.22140080704358 14.712906776009158 154.22140080704358 15.486559066856676C154.22140080704358 16.260186379423406 154.5286336607363 17.00214123195092 155.07590779280193 17.549190559489467C155.6229321420597 18.09623988702802 156.36478708146407 18.40357265384388 157.13836443746922 18.40357265384388C157.91219157628223 18.40357265384388 158.65404651568662 18.09623988702802 159.20107086494434 17.549190559489467C159.74809521420212 17.00214123195092 160.05557785070272 16.260186379423406 160.05557785070272 15.486559066856676C160.05557785070272 14.712906776009158 159.74809521420212 13.970951923481644 159.20107086494434 13.423902595943096C158.65404651568662 12.876853268404545 157.91219157628223 12.569545479869467 157.13836443746922 12.569545479869467C156.36478708146407 12.569545479869467 155.6229321420597 12.876853268404545 155.07590779280193 13.423902595943096ZM155.84199166457066 15.486559066856676C156.55711984353186 15.486559066856676 157.13836443746922 14.90516460323459 157.13836443746922 14.190111359115782C157.13836443746922 14.046286418338331 157.11413550510483 13.908531199792368 157.07167242776518 13.778893922502515C157.03520413781467 13.665442571163304 157.10389440998173 13.53782853461728 157.22154211249332 13.54187501610494C158.0480734237691 13.576320065311627 158.79142706002074 14.141478646421495 159.016231587113 14.982147664623286C159.29374028666794 16.01932081778447 158.6780256652431 17.0868675603839 157.64092744692428 17.364376259938865C156.60357944579758 17.64190993777462 155.53600772491734 17.026095403226634 155.2584990253624 15.988922250065448C155.22003247294884 15.849143790775656 155.19980006551054 15.709390309766652 155.19380527812143 15.56961185047686C155.18980875319534 15.452114017649988 155.31944603048518 15.383248897517403 155.43084916279977 15.419692209187131C155.56048644008965 15.462255199649926 155.69811676723162 15.486559066856676 155.84199166457066 15.486559066856676Z" fill="#FF5D17"/> </svg>